<?xml version="1.0" encoding="UTF-8"?>
<!DOCTYPE svg PUBLIC "-//W3C//DTD SVG 1.1//EN" "http://www.w3.org/Graphics/SVG/1.1/DTD/svg11.dtd">
<svg xmlns="http://www.w3.org/2000/svg" version="1.1" width="200px" height="200px" style="shape-rendering:geometricPrecision; text-rendering:geometricPrecision; image-rendering:optimizeQuality; fill-rule:evenodd; clip-rule:evenodd" xmlns:xlink="http://www.w3.org/1999/xlink">
<g><path style="opacity:0.96" fill="#fefffe" d="M 25.5,27.5 C 44.8362,27.3334 64.1695,27.5 83.5,28C 85.5524,28.9299 87.0524,30.4299 88,32.5C 89.145,59.8921 88.4784,87.2254 86,114.5C 78.4883,143.176 60.655,162.176 32.5,171.5C 29.2089,171.721 26.7089,170.387 25,167.5C 23.5272,163.221 21.5272,159.221 19,155.5C 18.3333,151.833 18.3333,148.167 19,144.5C 27.8093,140.085 35.8093,134.418 43,127.5C 49.2998,117.767 52.4665,107.1 52.5,95.5C 43.1607,95.6665 33.8274,95.4998 24.5,95C 22.9512,93.786 21.7845,92.286 21,90.5C 20.3333,71.1667 20.3333,51.8333 21,32.5C 22.517,30.7605 24.017,29.0938 25.5,27.5 Z"/></g>
<g><path style="opacity:0.958" fill="#fefffe" d="M 117.5,27.5 C 136.836,27.3334 156.17,27.5 175.5,28C 177.286,28.7845 178.786,29.9512 180,31.5C 180.667,55.8333 180.667,80.1667 180,104.5C 175.849,136.305 159.015,158.472 129.5,171C 125.171,172.151 121.338,171.318 118,168.5C 115.41,163.651 113.076,158.651 111,153.5C 110.149,149.958 110.649,146.625 112.5,143.5C 126.069,138.097 135.902,128.764 142,115.5C 143.489,108.881 144.655,102.215 145.5,95.5C 136.161,95.6665 126.827,95.4998 117.5,95C 115.448,94.0701 113.948,92.5701 113,90.5C 112.333,71.5 112.333,52.5 113,33.5C 114.332,31.34 115.832,29.34 117.5,27.5 Z"/></g>
</svg>
